<?xml version="1.0" encoding="UTF-8" standalone="no"?>
<!DOCTYPE svg PUBLIC "-//W3C//DTD SVG 1.1//EN" "http://www.w3.org/Graphics/SVG/1.1/DTD/svg11.dtd">
<svg width="100%" height="100%" viewBox="0 0 144 144" version="1.1" xmlns="http://www.w3.org/2000/svg" xmlns:xlink="http://www.w3.org/1999/xlink" xml:space="preserve" xmlns:serif="http://www.serif.com/" style="fill-rule:evenodd;clip-rule:evenodd;stroke-linejoin:round;stroke-miterlimit:2;">
    <g transform="matrix(1,0,0,1,12,96)">
        <path d="M0,0L12,0L12,24L36,24L36,34L0,34L0,0Z" style="fill:rgb(176,70,152);fill-rule:nonzero;"/>
    </g>
    <g transform="matrix(1,0,0,1,120,96)">
        <path d="M0,0L12,0L12,34L-24,34L-24,24L0,24L0,0Z" style="fill:rgb(176,70,152);fill-rule:nonzero;"/>
    </g>
    <g transform="matrix(1,0,0,1,60,58)">
        <rect x="0" y="0" width="24" height="24" style="fill:rgb(72,162,214);"/>
    </g>
    <g transform="matrix(1,0,0,1,12,96)">
        <rect x="0" y="0" width="12" height="24" style="fill:rgb(254,109,215);"/>
    </g>
    <g transform="matrix(1,0,0,1,96,120)">
        <rect x="0" y="0" width="24" height="10" style="fill:rgb(254,109,215);"/>
    </g>
    <g transform="matrix(1,0,0,1,132,130)">
        <rect x="0" y="0" width="12" height="14" style="fill:rgb(254,109,215);"/>
    </g>
    <g transform="matrix(1,0,0,1,0,130)">
        <rect x="0" y="0" width="12" height="14" style="fill:rgb(254,109,215);"/>
    </g>
    <g transform="matrix(1,0,0,1,108,106)">
        <rect x="0" y="0" width="12" height="14" style="fill:rgb(2,171,170);"/>
    </g>
    <g transform="matrix(1,0,0,1,24,106)">
        <rect x="0" y="0" width="12" height="14" style="fill:rgb(2,171,170);"/>
    </g>
    <g transform="matrix(1,0,0,1,84,82)">
        <rect x="0" y="0" width="12" height="14" style="fill:rgb(90,210,255);"/>
    </g>
    <g transform="matrix(1,0,0,1,48,82)">
        <rect x="0" y="0" width="12" height="14" style="fill:rgb(90,210,255);"/>
    </g>
    <g transform="matrix(1,0,0,1,60,58)">
        <rect x="0" y="0" width="12" height="14" style="fill:rgb(90,210,255);"/>
        <g transform="matrix(1,0,0,0.714286,12,14)">
            <rect x="0" y="0" width="12" height="14" style="fill:rgb(90,210,255);"/>
        </g>
    </g>
    <g transform="matrix(1,0,0,1,96,34)">
        <rect x="0" y="0" width="12" height="14" style="fill:rgb(90,210,255);"/>
    </g>
    <g transform="matrix(1,0,0,1,36,34)">
        <rect x="0" y="0" width="12" height="14" style="fill:rgb(90,210,255);"/>
    </g>
    <g transform="matrix(1,0,0,1,120,10)">
        <rect x="0" y="0" width="12" height="14" style="fill:rgb(90,210,255);"/>
    </g>
    <g transform="matrix(1,0,0,1,12,10)">
        <rect x="0" y="0" width="12" height="14" style="fill:rgb(90,210,255);"/>
    </g>
    <g transform="matrix(1,0,0,1,96,96)">
        <rect x="0" y="0" width="12" height="10" style="fill:rgb(72,162,214);"/>
    </g>
    <g transform="matrix(1,0,0,1,36,96)">
        <rect x="0" y="0" width="12" height="10" style="fill:rgb(72,162,214);"/>
    </g>
    <g transform="matrix(1,0,0,1,84,48)">
        <rect x="0" y="0" width="12" height="10" style="fill:rgb(90,210,255);"/>
    </g>
    <g transform="matrix(1,0,0,1,48,48)">
        <rect x="0" y="0" width="12" height="10" style="fill:rgb(90,210,255);"/>
    </g>
    <g transform="matrix(1,0,0,1,108,24)">
        <rect x="0" y="0" width="12" height="10" style="fill:rgb(90,210,255);"/>
    </g>
    <g transform="matrix(1,0,0,1,24,24)">
        <rect x="0" y="0" width="12" height="10" style="fill:rgb(90,210,255);"/>
    </g>
</svg>
